<svg xmlns="http://www.w3.org/2000/svg" version="1.1" xmlns:xlink="http://www.w3.org/1999/xlink" xmlns:svgjs="http://svgjs.dev/svgjs" width="1440" height="560" preserveAspectRatio="none" viewBox="0 0 1440 560"><g mask="url(&quot;#SvgjsMask1003&quot;)" fill="none"><rect width="1440" height="560" x="0" y="0" fill="rgba(62, 98, 89, 1)"></rect><path d="M 0,30 C 57.6,74.6 172.8,256.2 288,253 C 403.2,249.8 460.8,30 576,14 C 691.2,-2 748.8,151.4 864,173 C 979.2,194.6 1036.8,126.8 1152,122 C 1267.2,117.2 1382.4,143.6 1440,149L1440 560L0 560z" fill="rgba(91, 130, 102, 1)"></path><path d="M 0,486 C 96,451.4 288,301.6 480,313 C 672,324.4 768,545 960,543 C 1152,541 1344,351 1440,303L1440 560L0 560z" fill="rgba(174, 246, 199, 1)"></path></g><defs><mask id="SvgjsMask1003"><rect width="1440" height="560" fill="#ffffff"></rect></mask></defs></svg>